# xmcd
# Copyright (C) 1995-1998 Ti Kan
#
# Track frame offsets:
#       150
#       13611
#       30441
#       47402
#       62526
#       80271
#       96809
#       112554
#       131634
#       151630
#       169126
#
# Disc length: 2650 seconds
#
# Revision: 2
# Processed by: cddbd v1.5.2PL0 Copyright (c) Steve Scherf et al.
# Submitted via: CD-Transfer v1.0
#
DISCID=6d0a580b
DTITLE=Florian Ast - Läbeszeiche
DYEAR=2007
DGENRE=
TTITLE0=Ke Blasse
TTITLE1=Ohni Di
TTITLE2=Dir Ghört D'wält
TTITLE3=I Mache D'ouge Zue
TTITLE4=I Getroue Mi Nid
TTITLE5=Flüg Mit Mir
TTITLE6=Alte Maa
TTITLE7=Die Alte Schöne Lieder
TTITLE8=Heimat
TTITLE9=We D'wält Ungergeit
TTITLE10=Längizyt
EXTD=
EXTT0=
EXTT1=
EXTT2=
EXTT3=
EXTT4=
EXTT5=
EXTT6=
EXTT7=
EXTT8=
EXTT9=
EXTT10=
PLAYORDER=
